<?xml version="1.0" encoding="UTF-8"?>
<svg version="1.1"  width="292.21" height="292.21" viewBox="0 0 292.21 292.21" xml:space="preserve" xmlns="http://www.w3.org/2000/svg">
  <title>Logo Eintracht Frankfurt (seit 1998)</title>
  <g stroke-width=".1">
    <circle cx="146.11" cy="146.11" r="146.11" fill="#e1020c"/>
    <circle cx="146.11" cy="146.11" r="141.34" fill="#fff"/>
    <circle cx="146.11" cy="146.11" r="133.86" fill="#e1020c"/>
    <circle cx="146.11" cy="146.11" r="112.45" fill="#fff"/>
    <path d="m125.9 143.92v-3.0439s-11.689 0-21.916-17.776c0 0 6.453-0.1217 9.0099-4.992 0 0-4.3832-0.974-9.984 2.9222 0 0-0.3652-8.8882-6.4531-10.958 0 0-2.3133 5.8443 4.992 11.932 0 0-8.4012 2.4352-8.8882 5.8443 0 0 3.6527 0.8523 9.8622-3.6526 2e-4 0 8.4013 18.142 23.377 19.724z" fill="none" stroke="#e1020c" stroke-miterlimit="10"/>
  </g>
  <g fill="#e1020c">
    <path d="m250.7 150.61-38.475-10.958c-4.8702-1.7046 0.2436-1.9481 0.2436-1.9481l17.533-1.461c13.88-0.7306 15.341-11.689 15.341-11.689h-31.9c-4.3832 0-0.487-2.9221-0.487-2.9221l14.854-12.906c6.5748-6.8183 1.461-15.098 1.461-15.098-1.7046 2.9221-23.377 17.046-23.377 17.046-5.3573 4.3832-2.1916-2.4351-2.1916-2.4351 10.958-18.75 4.1396-28.734 4.1396-28.734-6.3313-5.8443-5.6008 0-5.6008 0-5.1137 14.367-9.984 14.367-9.984 14.367-8.5229 4.8702-7.3054 10.471-7.3054 10.471-0.2435 5.8443-3.4091 3.6527-3.4091 3.6527-2.6786 0-6.2096 4.1397-6.2096 4.1397-18.629 19.359-17.559-2.4299-17.559-2.4299s0.026-8.7716 0.3914-9.8675c0.3652-1.0958 8.6446 3.0439 8.7664-7.5489 0 0-5.966 3.531-7.5488-0.2435 0 0-2.6786-8.1577 4.505-12.297 0 0 3.0438 0.3653 2.1916-7.4271 0 0-2.1916 4.3832-6.0878 3.5309 0 0-8.8882 0.2435-10.471-1.2175 0 0-3.8962-2.6786-7.6707-2.3133 0 0-17.289 0-26.786 7.4271l0.9741 3.531 6.9401-3.2874s4.1397-1.5829 4.8702 1.0958c0 0 1.0958 2.6786 1.0958 4.3832 0 0-2.4351 1.8263-14.367 0.7305 0 0-2.5568 0.2435-3.6526-4.1397 0 0-4.8703 2.3134-0.9741 6.6966 0 0 6.2095 4.5049 19.481-0.4871 0 0 1.8264 2.4352-0.487 3.531 0 0-3.7926 1.5956-9.4969 0l-0.2436 3.0438s5.2355 3.7745 14.367 1.9481c0 0 2.6786 2.1916 1.7045 6.0877l-6.6966-0.1217 3.531 3.8962s0.6087 0.2435 1.0958 0l2.5569-1.8264s0.64 3.1189 0.487 4.7485c0 0-0.7306 21.916-19.359 2.5569 0 0-3.531-4.1397-6.2096-4.1397 0 0-3.1656 2.1916-3.4091-3.6527 0 0 1.2175-5.6008-7.3054-10.471 0 0-4.8703 0-9.984-14.367 0 0 0.7306-5.8443-5.6007 0 0 0-6.8184 9.984 4.1396 28.734 0 0 3.1657 6.8183-2.1916 2.4351 0 0-21.673-14.124-23.377-17.046 0 0-5.1137 8.2794 1.4611 15.098l14.855 12.906s3.8962 2.9221-0.487 2.9221h-31.9s1.4611 10.958 15.341 11.689l17.533 1.461s5.1138 0.2435 0.2436 1.9481l-38.475 10.958s-5.6008 2.6786 1.9481 7.0618c0 0 4.1397 4.1397 20.455 1.7046 0 0 9.0099-0.487 25.812-7.0618 0 0 5.6008-2.4352 1.2176 1.7045l-36.04 24.838s-5.4181 1.7655 0.6088 5.7835c0 0 3.8353 3.8353 14.611 0 0 0 21.551-10.958 31.596-19.177 0 0 6.2095-3.6526 2.7395 1.8264 0 0-2.3742 5.1137-9.1317 12.419l2.9221 2.9222s-9.8622 12.419-12.784 13.698l-5.2964-4.2005s-1.2784-1.0958-3.2874-0.5479c0 0-1.0958 1.0958-3.6527 0 0 0-5.2964-0.5479-6.2095 4.7484 0 0 2.1916-2.5568 5.479-0.9131l2.0089 0.9131s1.5828 1.8872 4.018 2.983c0 0 2.9221 0.7306 1.2175 1.5829l-5.8443 2.9222s-1.3393 0.2435-1.0958 2.3133c0 0-6.2095 2.1916-2.1916 8.2794 0 0 1.2176-5.6008 4.1397-4.3832 0 0 2.8003 1.0958 8.2793-4.1397 0 0 0 1.0959-0.487 2.4352-0.487 1.3394-2.3133 5.2355-1.7046 7.6706h1.2176s2.1408 5.3573 5.8189 7.6706c0 0-1.0704-6.2095-0.7051-7.4271l1.2175-0.3653s3.0439-2.1915 0.6088-6.8183c0 0-0.6088-1.5828 0.6087-3.4092l4.6268 6.0878s1.5828 0.487 2.4351 0l3.8962 4.992s1.2176-3.7744 0.9741-5.1138l-2.1917-2.5568s1.8264-2.0698-0.1217-3.4092l-5.479-4.2614s-1.5829-1.7046-0.1218-4.6268l9.2535-10.714 2.9221 2.4351s9.497-15.098 16.315-15.828c0 0 6.94 0.8522 3.4092 6.8183 0 0-1.2176 5.6008-14.002 18.507 0 0-9.4969 7.4271-4.7485 19.724l1.5829-5.2355s0.487-1.5828 1.2175 0.3653c0 0 3.0439 8.2794 5.8443 10.836v-11.932s-0.2435-2.0698 1.0958 0.1218l4.6268 6.8183s0.6087-18.872 9.2534-21.794c0 0 2.8004-2.0698 4.6267 2.4351 0 0 2.1916 2.6787-1.3393 11.932l-3.6527 6.94s-5.2964 10.836 3.744 18.964c0 0 0.9132-8.2185 3.2874-11.232 0 0 0.7306-1.2784 1.8264 0.1826 0 0 4.0179 7.488 7.214 10.502 3.1961-3.0135 7.2141-10.502 7.2141-10.502 1.0958-1.461 1.8263-0.1826 1.8263-0.1826 2.3743 3.0135 3.2874 11.232 3.2874 11.232 9.0404-8.1271 3.744-18.964 3.744-18.964l-3.6527-6.94c-3.5309-9.2534-1.3393-11.932-1.3393-11.932 1.8263-4.5049 4.6268-2.4351 4.6268-2.4351 8.6446 2.9222 9.2534 21.794 9.2534 21.794l4.6267-6.8183c1.3394-2.1916 1.0958-0.1218 1.0958-0.1218v11.932c2.8004-2.5568 5.8443-10.836 5.8443-10.836 0.7305-1.9481 1.2175-0.3653 1.2175-0.3653l1.5829 5.2355c4.7484-12.297-4.7485-19.724-4.7485-19.724-12.784-12.906-14.002-18.507-14.002-18.507-3.531-5.966 3.4092-6.8183 3.4092-6.8183 6.8183 0.7305 16.315 15.828 16.315 15.828l2.9221-2.4351 9.2535 10.714c1.461 2.9222-0.1218 4.6268-0.1218 4.6268l-5.479 4.2614c-1.948 1.3394-0.1218 3.4092-0.1218 3.4092l-2.1916 2.5568c-0.2436 1.3394 0.9741 5.1138 0.9741 5.1138l3.8961-4.992c0.8523 0.487 2.4352 0 2.4352 0l4.6268-6.0878c1.2175 1.8264 0.6087 3.4092 0.6087 3.4092-2.4351 4.6268 0.6088 6.8183 0.6088 6.8183l1.2176 0.3653c0.3652 1.2176-0.7052 7.4271-0.7052 7.4271 3.6781-2.3133 5.8189-7.6706 5.8189-7.6706h1.2176c0.6088-2.4351-1.2176-6.3313-1.7046-7.6706s-0.487-2.4352-0.487-2.4352c5.479 5.2355 8.2793 4.1397 8.2793 4.1397 2.9222-1.2176 4.1397 4.3832 4.1397 4.3832 4.018-6.0878-2.1916-8.2794-2.1916-8.2794 0.2435-2.0698-1.0958-2.3133-1.0958-2.3133l-5.8442-2.9222c-1.7046-0.8523 1.2175-1.5829 1.2175-1.5829 2.4352-1.0958 4.018-2.983 4.018-2.983l2.009-0.9131c3.2874-1.6438 5.479 0.9131 5.479 0.9131-0.9132-5.2963-6.2095-4.7484-6.2095-4.7484-2.5569 1.0958-3.6527 0-3.6527 0-2.009-0.5479-3.2874 0.5479-3.2874 0.5479l-5.2964 4.2005c-2.9222-1.2784-12.784-13.698-12.784-13.698l2.9222-2.9222c-6.7574-7.3054-9.1317-12.419-9.1317-12.419-3.47-5.479 2.7396-1.8264 2.7396-1.8264 10.045 8.2186 31.596 19.177 31.596 19.177 10.775 3.8353 14.611 0 14.611 0 6.0269-4.018 0.6088-5.7835 0.6088-5.7835l-36.04-24.838c-4.3832-4.1396 1.2176-1.7045 1.2176-1.7045 16.802 6.5748 25.812 7.0618 25.812 7.0618 16.315 2.4352 20.455-1.7046 20.455-1.7046 7.5484-4.3832 1.9476-7.0618 1.9476-7.0618zm-124.8-6.6966c-14.976-1.5829-23.377-19.724-23.377-19.724-6.2095 4.5049-9.8622 3.6526-9.8622 3.6526 0.487-3.4092 8.8882-5.8443 8.8882-5.8443-7.3054-6.0878-4.992-11.932-4.992-11.932 6.0878 2.0699 6.4531 10.958 6.4531 10.958 5.6008-3.8962 9.984-2.9222 9.984-2.9222-2.5569 4.8702-9.0099 4.992-9.0099 4.992 10.228 17.776 21.916 17.776 21.916 17.776v3.044zm10.349-65.261c4.992-1.3393 7.6706 0 7.6706 0l-6.5748 4.6268c-1.5828-2.1916-1.0958-4.6268-1.0958-4.6268zm9.6796 96.674s-13.21-14.732-13.332-44.684h26.664s0.6088 27.882-13.332 44.684zm43.343-51.137s-8.4012 18.142-23.377 19.724v-3.0439s11.689 0 21.916-17.776c0 0-6.453-0.1218-9.0099-4.992 0 0 4.3832-0.974 9.984 2.9222 0 0 0.3652-8.8882 6.453-10.958 0 0 2.3134 5.8443-4.992 11.932 0 0 8.4012 2.4351 8.8882 5.8443 0 0-3.6526 0.8522-9.8622-3.6527z" stroke-width=".1"/>
    <polygon transform="matrix(.1 0 0 .1 3.704e-5 2.4652e-5)" points="1447.4 1561.5 1533.2 1561.5 1533.2 1595.3 1396.2 1595.3 1396.2 1365.2 1526.8 1365.2 1526.8 1400.8 1447.4 1400.8 1447.4 1455.6 1526.8 1455.6 1526.8 1493 1447.2 1493"/>
    <path d="m131.4 65.566h26.573v-3.6527s3.47-8.5838 6.2096-11.049l-11.689 5.1137-7.6706-6.6661-7.6707 6.6661-11.78-5.1137s5.8442 8.949 6.0269 10.593z" stroke-width=".1"/>
  </g>
</svg>
